<?xml version="1.0" standalone="no"?>
<?xml-stylesheet href="light.css" type="text/css"?>
<!DOCTYPE svg PUBLIC "-//W3C//DTD SVG 1.1//EN" "http://www.w3.org/Graphics/SVG/1.1/DTD/svg11.dtd">
<svg xmlns="http://www.w3.org/2000/svg" version="1.1" viewBox="0 0 1000 1000"><g transform="translate(533.6244232854174,475.0126151855138) scale(0.8705505632961245)"><g><path class="link" d="M47.037808470444055,-447.534852915723L66.48426465135812,-405.5019872890595C85.9307208322722,-363.469121662396,124.82363319410035,-279.403390409069,132.57737526035828,-278.17531831148386C140.33111732661624,-276.94724621389884,116.94568909730395,-358.55683327205566,105.25297498264781,-399.36162680113404L93.56026086799169,-440.16642033021253"></path><path class="link" d="M47.037808470444055,-447.534852915723L68.81733688264133,-398.2384315465979C90.5968652948386,-348.9420101774728,134.15592211923314,-250.3491674392225,134.8807760395585,-179.57318131543764C135.60562995988388,-108.79719519165279,93.49628097614008,-65.83806568233328,98.49749944062903,-20.409975952287972C103.49871790511797,25.018113777757335,155.61050381783966,72.91516372852844,207.72228973056133,120.81221367929955C259.83407564328303,168.70926363007064,311.9458615560047,216.60631358084177,338.00175451236555,240.5548385562273L364.0576474687264,264.5033635316129"></path><path class="link" d="M93.56026086799169,-440.16642033021253L109.7835073797555,-397.6225183543217C126.00675389151932,-355.0786163784308,158.45324691504695,-269.99081242664914,186.9437640256505,-257.3060169497348C215.43428113625404,-244.6212214728204,239.9688223339335,-304.33943447077337,252.2360929327732,-334.1985409697499L264.50336353161293,-364.0576474687264"></path><path class="link" d="M93.56026086799169,-440.16642033021253L101.18811260998227,-396.96680091049626C108.81596435197282,-353.76718149077993,124.07166783595397,-267.36794265134745,102.30847496555941,-207.86450635319147C80.54528209516484,-148.36107005503544,21.763192870394562,-115.75343629815602,-38.35539786913653,-85.7688344547697C-98.47398860866763,-55.78423261138338,-159.92908086295952,-28.42266268149021,-218.71117008772978,-52.06502892461079C-277.4932593125001,-75.70739516773138,-333.6023455077487,-150.3536975838657,-361.65688860537307,-187.67684879193288L-389.71143170299734,-225.00000000000006"></path><path class="link" d="M93.56026086799169,-440.16642033021253L104.7576295186547,-399.28487229503503C115.95499816931768,-358.4033242598575,138.34973547064368,-276.6402281895026,123.72557641759397,-221.7729346604241C109.10141736454425,-166.90564113134567,57.458361957118825,-138.9341501435438,4.478805034932591,-113.58569106923507C-48.50075188725365,-88.23723199492632,-102.81681032420072,-65.51180483411069,-111.62566282755701,-121.60717046077419C-120.43451533091331,-177.7025360874377,-83.73616190067888,-312.61869450158036,-65.38698518556166,-380.0767737086517L-47.03780847044443,-447.534852915723"></path><path class="link" d="M93.56026086799169,-440.16642033021253L100.58578530568303,-395.1130280820634C107.61130974337438,-350.05963583391423,121.66235861875708,-259.952851337616,98.69451113976406,-196.74186938259422C75.72666366077105,-133.53088742757248,15.739919827402323,-97.21570801382728,-45.583325520727215,-63.52356051357523C-106.90657086885676,-29.831413013323168,-169.56631773174712,1.237702573435764,-236.78098921670653,3.5481559283754067C-303.99566070166594,5.85860928331505,-375.76525680869446,-20.589599593564596,-411.6500548622087,-33.813704032004416L-447.534852915723,-47.03780847044424"></path><path class="link" d="M93.56026086799169,-440.16642033021253L101.76411532079653,-391.4865011931891C109.96796977360138,-342.8065820561657,126.37567867921105,-245.44674378211883,105.76449123044502,-174.98270804934853C85.153303781679,-104.51867231657825,27.52321997853727,-60.95043912508451,-31.443365339365272,-20.0052378470839C-90.40995065726781,20.93996343091671,-150.71303748993117,59.262132795424186,-201.43108876330166,112.34396259460372C-252.14914003667215,165.4257923937832,-293.2821557507497,233.26728262763478,-313.8486636077885,267.18802774456054L-334.4151714648273,301.10877286148633"></path><path class="link" d="M93.56026086799169,-440.16642033021253L101.45533952908924,-391.8678075403753C109.35041819018682,-343.5691947505381,125.14057551238193,-246.97196917086356,103.91183648020133,-177.27054613246563C82.68309744802075,-107.5691230940677,24.43546206146446,-64.76350259694634,-35.14867483985265,-24.58091401331809C-94.73281174116975,15.601674570310157,-155.65345015724768,53.16123124044527,-210.6943625145201,100.90477217901825C-265.7352748717925,148.64831311759124,-314.89646117025944,206.57583832460207,-339.4770543194929,235.5396009281075L-364.0576474687263,264.50336353161293"></path><path class="link" d="M93.56026086799169,-440.16642033021253L100.6625398117821,-395.5976369612045C107.7648187555725,-351.0288535921965,121.96937664315334,-261.8912868541804,99.15503817635846,-199.6495226574409C76.34069970956357,-137.40775846070142,16.507464888392985,-102.06179680523847,-44.66227144753842,-69.33886706326865C-105.83200778346982,-36.615937321298844,-168.33824563416204,-6.516039492822159,-234.47835403373452,-10.990110445858194C-300.618462433307,-15.464181398894231,-370.39244138175974,-54.512221133442985,-405.27943085598616,-74.03624100071737L-440.16642033021253,-93.56026086799174"></path><path class="link" d="M139.05764746872632,-427.9754323328191L146.94852772314337,-388.18933711634895C154.8394079775604,-348.403241899879,170.62116848639448,-268.83105146693885,177.95014213895843,-266.01772206799734C185.2791157915224,-263.20439266905595,184.15530258781624,-337.1499243041132,183.59339598596316,-374.1226901216418L183.03148938411007,-411.0954559391704"></path><path class="link" d="M183.03148938411007,-411.0954559391704L185.383861663698,-373.3255234418538C187.73623394328595,-335.55559094453724,192.4409785024619,-260.01572594990415,199.43573027177683,-256.45172191054195C206.43048204109184,-252.8877178711798,215.7152410205459,-321.2995747870886,220.35762051027294,-355.505503245043L224.99999999999997,-389.7114317029974"></path><path class="link" d="M183.03148938411007,-411.0954559391704L186.20684840393994,-372.79106960363987C189.38220742376984,-334.4866832681093,195.7329254634296,-257.87791059704824,209.31157115468008,-250.0382758519742C222.89021684593058,-242.19864110690023,243.69679018877173,-303.1281442878133,254.10007686019233,-333.59289587826987L264.50336353161293,-364.0576474687264"></path><path class="link" d="M183.03148938411007,-411.0954559391704L186.9694610983123,-372.17351802022523C190.90743281251457,-333.2515801012802,198.78337624091907,-255.40770426338997,218.4629234871484,-242.62765685099944C238.1424707333778,-229.84760943860897,269.62562179743196,-282.13139045171823,285.3671973294591,-308.27328095827284L301.1087728614862,-334.41517146482744"></path><path class="link" d="M183.03148938411007,-411.0954559391704L187.66334440254857,-371.479634715989C192.29519942098713,-331.86381349280765,201.55890945786416,-252.63217104644488,226.7895231379837,-234.30105720016414C252.0201368181033,-215.96994335388345,293.21765414146535,-258.53935810768485,313.8164128031464,-279.82406548458556L334.41517146482744,-301.1087728614862"></path><path class="link" d="M183.03148938411007,-411.0954559391704L188.28089598596316,-370.71702202161663C193.53030258781624,-330.3385881040629,204.0291157915224,-249.58172026895545,234.20014213895846,-225.14970486769585C264.3711684863945,-200.71768946643627,314.2144079775604,-232.6105264990246,339.1360277231434,-248.55694501531877L364.0576474687264,-264.50336353161293"></path><path class="link" d="M183.03148938411007,-411.0954559391704L188.81534982417713,-369.8940352813747C194.59921026424422,-328.692614623579,206.1669311443783,-246.2897733079877,240.61358819752618,-215.27386398479265C275.0602452506741,-184.2579546615976,332.3858384768357,-204.62897733079885,361.04863508991656,-214.8144886653994L389.71143170299734,-225.00000000000006"></path><path class="link" d="M183.03148938411007,-411.0954559391704L189.2608503290974,-369.01969131021036C195.49021127408477,-326.9439266812503,207.9489331640594,-242.7923974233302,245.95959425656943,-204.7817363308201C283.97025534907954,-166.77107523831012,347.532855644125,-174.90128231121014,379.31415579164764,-178.96638584766015L411.0954559391704,-183.03148938411016"></path><path class="link" d="M183.03148938411007,-411.0954559391704L179.46638996080867,-366.0052882446491C175.9012905375073,-320.9151205501278,168.77109169090454,-230.73478516108528,135.80590005444085,-163.81638176443903C102.84070841797717,-96.89797836779279,44.04052399165257,-53.241506963542825,-16.09616194943284,-12.20806747278599C-76.23284789051826,28.825372017970846,-137.70603534636447,67.23577959523455,-185.4308874175002,124.56914743258794C-233.15573948863593,181.90251526994135,-267.13225617506106,258.1588433673844,-284.1205145182737,296.28700741610595L-301.1087728614863,334.4151714648275"></path><path class="link" d="M224.99999999999997,-389.7114317029974L216.5444644814373,-355.0600027401227C208.08892896287466,-320.408573777248,191.17785792574932,-251.10571585149873,153.67785792574932,-202.39178688862407C116.17785792574932,-153.67785792574935,58.08892896287464,-125.55285792574936,-1.336501514760845,-100.05088983924247C-60.761931992396335,-74.54892175273558,-121.52386398479264,-51.66998557972181,-159.02386398479265,-100.38391454259647C-196.52386398479268,-149.09784350547113,-210.76193199239643,-269.4046376042342,-217.88096599619834,-329.5580346536157L-225.0000000000002,-389.7114317029973"></path><path class="link" d="M224.99999999999997,-389.7114317029974L218.39823730987018,-355.66233004442194C211.79647461974037,-321.6132283858465,198.59294923948082,-253.51502506869562,164.80049489634655,-206.00575071441938C131.00804055321228,-158.49647636014316,76.62665724720337,-131.5761309687416,20.908772426433618,-107.27881749083319C-34.809112394336125,-82.98150401292474,-91.86349872986669,-61.307222448509435,-103.4106791318065,-118.45373367157326C-114.95785953374632,-175.6002448946371,-80.99783400209537,-311.56754890518005,-64.01782123626991,-379.55120091045154L-47.03780847044444,-447.534852915723"></path><path class="link" d="M224.99999999999997,-389.7114317029974L215.40472311201202,-347.86395894257595C205.80944622402407,-306.01648618215467,186.6188924480482,-222.3215406613119,146.83940970919764,-159.2155241033438C107.05992697034706,-96.10950754537572,46.69151526862182,-53.592419950282306,-15.01339794786423,-13.698364268682019C-76.71831116435028,26.19569141291827,-139.75972589559714,63.46671518102543,-193.2161050675511,115.49739938380462C-246.6724842395051,167.52808358658382,-290.5438278521662,234.31842822403505,-312.4794996584967,267.7136005427606L-334.41517146482727,301.1087728614863"></path><path class="link" d="M224.99999999999997,-389.7114317029974L215.75166476413014,-347.5170172904579C206.50332952826034,-305.32260287791837,188.00665905652076,-220.93377405283934,148.92105962190644,-157.13387419063497C109.83546018729216,-93.33397432843061,50.16093178980319,-50.123003429100926,-10.85009812244659,-9.535064443264366C-71.86112803469638,31.052874542572198,-134.20865946170696,69.01778161491563,-182.80785550400705,125.90564894734875C-231.40705154630712,182.7935162797819,-266.25791220389664,258.6043438723047,-283.6833425326914,296.5097576685661L-301.1087728614862,334.4151714648275"></path><path class="link" d="M264.50336353161293,-364.0576474687264L254.10007686019233,-333.59289587826987C243.69679018877173,-303.1281442878133,222.89021684593058,-242.19864110690023,209.31157115468008,-250.0382758519742C195.7329254634296,-257.87791059704824,189.38220742376984,-334.4866832681093,186.20684840393994,-372.79106960363987L183.03148938411007,-411.0954559391704"></path><path class="link" d="M264.50336353161293,-364.0576474687264L248.58408678134413,-330.2691915351356C232.66481003107538,-296.4807356015448,200.8262565305378,-228.9038237343632,153.3366945085772,-178.70911780077242C105.84713248661656,-128.51441186718162,42.70656194323289,-95.7019118671816,-21.77051011491159,-65.51244378067472C-86.24758217305607,-35.322975694167816,-152.06115574596137,-7.756539521154063,-219.98472636807276,-20.451245454744843C-287.90829699018417,-33.145951388335625,-357.9418646615016,-86.10179942853095,-392.95864849716037,-112.5797234486286L-427.97543233281914,-139.05764746872626"></path><path class="link" d="M264.50336353161293,-364.0576474687264L248.75991986877798,-330.7272523884208C233.01647620594304,-297.3968573081153,201.5295888802732,-230.73606714750417,154.39169303318025,-181.45748292048384C107.2537971860873,-132.17889869346357,44.464892817571304,-100.28252040003406,-19.660513065705505,-71.00917402009766C-83.78591894898231,-41.73582764016127,-149.24782634701995,-15.085513173718004,-214.7097337450576,-34.193071053302226C-280.1716411430952,-53.30062893288646,-345.6335485411328,-118.16605915849819,-378.3645022401517,-150.59877427130405L-411.0954559391705,-183.0314893841099"></path><path class="link" d="M301.1087728614862,-334.41517146482744L290.11852996602283,-303.5219483217091C279.1282870705595,-272.6287251785907,257.1478012796328,-210.842278892354,275.4789151259135,-185.61166521223444C293.8100289721942,-160.38105153211487,352.45274245568226,-171.70627045811253,381.7740991974263,-177.36887992111133L411.0954559391704,-183.03148938411016"></path><path class="link" d="M301.1087728614862,-334.41517146482744L282.7840130035128,-307.4745279949984C264.45925314553944,-280.5338845251694,227.8097334295926,-226.65259758551136,180.0848813584569,-186.44820707895676C132.3600292873212,-146.24381657240212,73.5598448609966,-119.71632249895094,13.423158919911197,-95.81186033899286C-46.71352702117421,-71.90739817903479,-108.18671447702043,-50.62596793256984,-141.1519061134841,-103.61040585151495C-174.1170977499478,-156.59484377046007,-178.57429356702895,-283.84514985481525,-180.8028914755695,-347.4703028969928L-183.0314893841101,-411.09545593917045"></path><path class="link" d="M301.1087728614862,-334.41517146482744L281.55404130062345,-299.7087922928734C261.99930973976075,-265.00241312091947,222.88984661803525,-195.58965477701145,172.7050511411209,-139.85379286620687C122.52025566420652,-84.1179309554023,61.26012783210326,-42.05896547770115,-1.3365015147608166,-2.6230319134931244C-63.933130861624896,36.8129016507149,-127.86626172324979,73.6258033014298,-178.05105720016414,129.36166521223439C-228.2358526770785,185.09752712303896,-264.67231276928237,259.75634929393317,-282.8905428153843,297.0857603793803L-301.1087728614862,334.41517146482744"></path><path class="link" d="M334.41517146482744,-301.1087728614862L318.5677454397101,-275.07273284802176C302.7203194145929,-249.03669283455733,271.0254673643583,-196.96461280762847,283.8055147767488,-177.28506556139914C296.5855621891393,-157.60551831516977,353.8405090641548,-170.31850384963997,382.4679825016626,-176.67499661687506L411.0954559391704,-183.03148938411016"></path><path class="link" d="M334.41517146482744,-301.1087728614862L313.8164128031464,-279.82406548458556C293.21765414146535,-258.53935810768485,252.0201368181033,-215.96994335388345,226.7895231379837,-234.30105720016414C201.55890945786416,-252.63217104644488,192.29519942098713,-331.86381349280765,187.66334440254857,-371.479634715989L183.03148938411007,-411.0954559391704"></path><path class="link" d="M334.41517146482744,-301.1087728614862L310.3501984264289,-277.87961790591856C286.28522538803037,-254.65046295035094,238.15527931123333,-208.19215303921567,183.11330070466502,-171.24743973576616C128.07132209809672,-134.30272643231663,66.11731096175717,-106.87160973655291,2.8267983106568075,-82.06352495428229C-60.46371434044355,-57.255440172011674,-125.09072850630473,-35.07038730323419,-175.9694072874554,-77.56616704057386C-226.8480860686061,-120.06194677791352,-263.97842946504625,-227.23855912137034,-282.5436011632664,-280.82686529309876L-301.10877286148644,-334.41517146482715"></path><path class="link" d="M334.41517146482744,-301.1087728614862L308.82492675919724,-274.8861037080604C283.23468205356716,-248.66343455463462,232.05419264230682,-196.21809624778302,173.96167070127524,-153.2863545486172C115.86914876024366,-110.35461284945141,50.864594289440866,-76.93646775797136,-15.476461696122755,-46.14135457998444C-81.81751768168637,-15.346241401997512,-149.49507518201082,12.825839862496283,-221.7275573044043,12.239258895170792C-293.9600394267978,11.652677927845305,-370.74744617126044,-17.69256527129947,-409.14114954349174,-32.36518687087186L-447.534852915723,-47.03780847044424"></path><path class="link" d="M334.41517146482744,-301.1087728614862L308.9016812652963,-275.3707125872015C283.3881910657653,-249.6326523129169,232.36121066670307,-198.15653176434753,174.42219773786962,-156.19400782346392C116.48318480903619,-114.23148388258038,51.63213935043154,-81.78255654938256,-14.555407622933947,-51.956661129677876C-80.74295459629943,-22.13076570997319,-148.26700308442574,5.072097796238367,-219.42492212143227,-2.2990074790627992C-290.58284115843884,-9.670112754363965,-365.3746307443257,-51.61518681117786,-402.7705255372691,-72.5877238395848L-440.16642033021253,-93.56026086799174"></path><path class="link" d="M334.41517146482744,-301.1087728614862L310.7315047736151,-278.1883936976258C287.04783808240273,-255.2680145337655,239.68050469997806,-209.4272562060448,185.4011387877821,-173.10009448600985C131.12177287558615,-136.7729327659749,69.93037443361898,-109.95936765362573,7.4024744768909825,-85.76883445476967C-55.12542547983701,-61.57830125591365,-118.98982695132582,-40.01079997055073,-164.53021687186995,-86.82944079179235C-210.07060679241408,-133.64808161303398,-237.28698516201356,-248.85286454088018,-250.8951743468133,-306.45525600480323L-264.503363531613,-364.0576474687263"></path><path class="link" d="M364.0576474687264,-264.50336353161293L343.88736035970715,-243.805612378755C323.717073250688,-223.1078612258971,283.3764990326495,-181.71235892018126,291.21613377772354,-168.13371322893082C299.05576852279756,-154.55506753768034,355.075612230984,-168.79327846089527,383.08553408507714,-175.9123839225027L411.0954559391704,-183.03148938411016"></path><path class="link" d="M364.0576474687264,-264.50336353161293L339.1360277231434,-248.55694501531877C314.2144079775604,-232.6105264990246,264.3711684863945,-200.71768946643627,234.20014213895843,-225.14970486769585C204.0291157915224,-249.58172026895545,193.53030258781624,-330.3385881040629,188.28089598596316,-370.7170220216167L183.03148938411007,-411.0954559391704"></path><path class="link" d="M364.0576474687264,-264.50336353161293L335.6316474860151,-245.8842494373475C307.20564750330374,-227.26513534308208,250.35364753788113,-190.0269071545512,190.29492454317463,-157.72659940747198C130.23620154846813,-125.42629166039269,66.97075552447775,-98.06390435476506,2.368807985726557,-73.32454896263054C-62.233139553024635,-48.58519357049602,-128.17158860653663,-26.468870091854626,-184.52500210075576,-64.87007939391277C-240.87841559497488,-103.27128869597094,-287.6467935299011,-202.19003077872864,-311.0309824973642,-251.6494018201075L-334.4151714648273,-301.10877286148633"></path><path class="link" d="M364.0576474687264,-264.50336353161293L334.4533174709016,-243.2376768916075C304.84898747307676,-221.97199025160202,245.64032747742715,-179.44061697159114,183.22494445249367,-141.84716413303184C120.80956142756015,-104.25371129447252,55.1874553733428,-71.59817889736485,-11.77115219563538,-41.56567841375027C-78.72975976461356,-11.533177930135713,-147.02486884835255,15.876290639985724,-219.87490255416063,14.527096978287872C-292.7249362599687,13.177903316590026,-370.12989458784585,-16.929952576927107,-408.8323737517844,-31.983880523685674L-447.534852915723,-47.03780847044424"></path><path class="link" d="M364.0576474687264,-264.50336353161293L334.53007197700066,-243.7222857707486C305.0024964852749,-222.94120800988426,245.9473455018234,-181.3790524881556,183.68547148908806,-144.75481740787856C121.4235974763527,-108.13058232760149,55.95500043433346,-76.44426768877604,-10.850098122446587,-47.380984963443716C-77.65519667922663,-18.31770223811139,-145.7967967507675,8.122548573727807,-217.57226737118864,-0.011169395945718938C-289.3477379916098,-8.144887365619246,-364.75707916091113,-50.8525741168055,-402.4617497455618,-72.20641749239861L-440.16642033021253,-93.56026086799174"></path><path class="link" d="M389.71143170299734,-225.00000000000006L365.79996772648025,-210.0631560288357C341.88850374996326,-195.1263120576713,294.0655757969291,-165.25262411534257,297.62957983629127,-158.25787234602757C301.1935838756535,-151.2631205767126,356.1445199074119,-167.14730498041138,383.61998792329115,-175.08939718226077L411.0954559391704,-183.03148938411016"></path><path class="link" d="M389.71143170299734,-225.00000000000006L361.04863508991656,-214.8144886653994C332.3858384768357,-204.62897733079885,275.0602452506741,-184.2579546615976,240.61358819752618,-215.27386398479265C206.1669311443783,-246.2897733079877,194.59921026424422,-328.692614623579,188.81534982417713,-369.8940352813747L183.03148938411007,-411.0954559391704"></path><path class="link" d="M389.71143170299734,-225.00000000000006L357.50270598018784,-211.348993370121C325.29398025737845,-197.697986740242,260.8765288117595,-170.39597348048392,196.4590773661406,-143.09396022072585C132.04162592052168,-115.79194696096776,67.62417447490277,-88.48993370120968,1.870221514523043,-63.81095235494474C-63.88373144585669,-39.131971008679784,-130.97418592099726,-17.076021575907962,-192.1849143373323,-50.9619287576015C-253.39564275366737,-84.84783593929502,-308.7266451111969,-174.67559973545394,-336.39214628996166,-219.58948163353338L-364.05764746872643,-264.5033635316128"></path><path class="link" d="M389.71143170299734,-225.00000000000006L356.6331517567817,-209.08372717156718C323.554871810566,-193.1674543431343,257.39831191813465,-161.33490868626856,191.24175202570333,-129.5023630294028C125.08519213327197,-97.66981737253705,58.92863224084064,-65.83727171567129,-8.564429166351522,-36.62775797229867C-76.05749057354369,-7.418244228926038,-144.88705349549664,19.168237600953464,-218.27154103951872,16.996057199013677C-291.6560285835408,14.823876797073895,-369.5954407496319,-16.106965836685173,-408.5651468326774,-31.572387153564705L-447.534852915723,-47.03780847044424"></path><path class="link" d="M389.71143170299734,-225.00000000000006L358.1584234240133,-205.11025863057475C326.60541514502927,-185.22051726114947,263.4993985870612,-145.4410345222989,200.39338202909312,-105.66155178344832C137.28736547112504,-65.88206904459774,74.18134891315697,-26.102586305747156,9.73883084042807,11.053864519610299C-54.70368723230083,48.21031534496776,-120.48270681979055,82.74373425683208,-172.51339102256972,136.20011342878607C-224.54407522534893,189.65649260074008,-262.82642404341755,262.03583203278373,-281.9675984524519,298.2255017488056L-301.1087728614862,334.41517146482744"></path><path class="link" d="M389.71143170299734,-225.00000000000006L356.7099062628807,-209.56833605070827C323.7083808227641,-194.13667210141656,257.7053299425309,-163.27334420283304,191.70227906229775,-132.41001630424952C125.69922818206453,-101.54668840566602,59.69617730183132,-70.6833605070825,-7.643375093162708,-42.4430645219921C-74.98292748815673,-14.202768536901715,-143.6589813979116,11.414495534695547,-215.96890585654668,2.4577908247800857C-288.2788303151818,-6.498913885135376,-364.2226253226972,-50.02958737656356,-402.1945228264549,-71.79492412227765L-440.16642033021253,-93.56026086799174"></path><path class="link" d="M411.0954559391704,-183.03148938411016L384.4171546030791,-173.29893150452588C357.73885326698786,-163.56637362494163,304.38225059480527,-144.10125786577314,307.1955799937467,-136.77228421320913C310.00890939268817,-129.4433105606452,368.99217086275365,-134.25047901468577,398.48380159778634,-136.65406324170604L427.9754323328191,-139.05764746872634"></path><path class="link" d="M427.9754323328191,-139.05764746872634L399.08944668926637,-134.7900793142869C370.2034610457137,-130.52251115984748,312.43148975860834,-121.98737485096865,314.4633210915072,-114.40447708417953C316.49515242440617,-106.8215793173904,378.3307863773093,-100.19092009269104,409.2486033537609,-96.87559048034136L440.16642033021253,-93.56026086799166"></path><path class="link"></path><path class="link" d="M427.9754323328191,-139.05764746872634L394.3773903525205,-129.601924374003C360.77934837222193,-120.14620127927964,293.5832644116247,-101.23475508983294,231.1701805297553,-71.580514833977C168.75709664788585,-41.92627457812108,111.12701284474412,-1.5292402558559341,52.160427526841566,36.24476215291608C-6.806157791060973,74.0187645616881,-67.10924462372434,109.16973505696699,-76.02539946399139,177.6917693792321C-84.94155430425845,246.21380370149723,-42.470777152129195,348.10690185074867,-21.23538857606457,399.05345092537436L5.554268418642517e-14,450"></path><path class="link" d="M440.16642033021253,-93.56026086799166L409.6560912825714,-94.95851050121047C379.1457622349303,-96.35676013442928,318.12510413964816,-99.15325940086689,319.3531762372332,-91.39951733460894C320.5812483348183,-83.64577526835102,384.05805062527065,-65.34179186939754,415.7964517704968,-56.1898001699208L447.534852915723,-47.037808470444055"></path><path class="link" d="M440.16642033021253,-93.56026086799166L404.42753822036644,-90.29132082424569C368.6886561105204,-87.0223807804997,297.21089189082824,-80.48450069300775,232.04000124953802,-57.516653214014724C166.86911060824778,-34.54880573502171,108.0050935453594,4.849009135472353,47.80457496771024,41.62379209247329C-12.395943609938925,78.39857504947422,-73.93296370234891,112.55032609298202,-89.96277786116809,179.76499757794147C-105.99259201998728,246.97966906290085,-76.51520024521568,347.257260989312,-61.77650435782988,397.3960569525175L-47.03780847044408,447.534852915723"></path><path class="link" d="M440.16642033021253,-93.56026086799166L403.94292934122535,-90.36807533034475C367.7194383522381,-87.17588979269783,295.27245637426375,-80.791518717404,229.13234797469127,-57.977180250609116C162.99223957511882,-35.162841783814244,103.1590047539482,4.081464074481687,41.9892684180168,40.70273801928449C-19.18046791791461,77.32401196408729,-81.68670576860683,111.32225399539698,-104.50104423540171,177.46236239496943C-127.31538270219657,243.60247079454197,-110.43782178509407,341.88444556237727,-101.99904132654284,391.02543294629487L-93.56026086799157,440.16642033021253"></path><path class="link" d="M440.16642033021253,-93.56026086799166L405.89210144264183,-90.36807533034475C371.6177825550711,-87.17588979269783,303.06914477992973,-80.791518717404,240.82738058319023,-57.977180250609116C178.58561638645074,-35.162841783814244,122.65072576811313,4.081464074481687,65.3793336350147,40.70273801928449C8.107941501916292,77.32401196408729,-50.49995214594295,111.32225399539698,-46.02588119290692,177.46236239496943C-41.551810239870896,243.60247079454197,26.004225314060395,341.88444556237727,59.78224309102604,391.02543294629487L93.56026086799169,440.16642033021253"></path><path class="link" d="M447.534852915723,-47.037808470444055L416.0013180136173,-54.2406280685043C384.4677831115118,-61.443447666564545,321.4007133073006,-75.84908686268504,321.81157115468005,-68.00945211761105C322.2224290020596,-60.16981737253704,386.1112145010298,-30.084908686268534,418.05560725051487,-15.042454343134281L450,-2.7771342093212587e-14"></path><path class="link" d="M447.534852915723,-47.037808470444055L409.3815613837383,-50.44836090737173C371.22826985175374,-53.85891334429942,294.92168678778444,-60.68001821815477,225.84303137540587,-45.255849150815635C156.76437596302733,-29.831680083476485,94.91364820223949,7.837762925057163,31.72641892669081,42.88417402009768C-31.460810348857866,77.9305851151382,-95.98454113916735,110.35396429668559,-132.0002761100943,171.28533929761556C-168.01601108102122,232.2167142985455,-175.5237502325656,321.656085118858,-179.2776198083378,366.37577052901423L-183.03148938410993,411.0954559391705"></path><path class="link" d="M447.534852915723,-47.037808470444055L408.53289602803517,-50.93833807893886C369.53093914034736,-54.83886768743366,291.52702536497185,-62.63992690442328,220.75103924118696,-48.195712180218386C149.9750531174021,-33.751497456013496,86.42699464520793,2.937991209385899,21.542434658252954,37.004447961292165C-43.34212532870203,71.07090471319843,-109.56318683041785,102.51432955161158,-157.46023678118894,156.58602415060176C-205.35728673196004,210.65771874959194,-234.93032513178647,287.35768310915915,-249.7168443316997,325.7076652889428L-264.5033635316129,364.0576474687264"></path><path class="link" d="M447.534852915723,-47.037808470444055L409.8396222370236,-50.27252781993789C372.14439155832423,-53.507247169431736,296.7539302009254,-59.976685868419416,228.59139649511735,-44.2008506262126C160.4288627893093,-28.42501538400577,99.49425673509192,9.596093799395556,37.223149166113735,44.99417106930375C-25.047958402864452,80.39224833921195,-88.65556748660346,113.16729369562701,-118.25845051153696,176.56033192063072C-147.86133353647048,239.9533701456344,-143.45949050259847,333.9644012392268,-141.2585689856625,380.9699167860229L-139.0576474687265,427.9754323328191"></path><path class="link" d="M447.534852915723,-47.037808470444055L408.94438939815615,-50.67111115983187C370.3539258805893,-54.30441384921969,293.1729988454557,-61.57101922799532,223.2199994619128,-46.592350665576454C153.26700007836985,-31.613682103157583,90.5419283464176,5.6102604004557906,26.480355099704543,40.211170990576036C-37.58121814700851,74.81208158069627,-102.97929290848238,106.7899602573234,-145.11543567755996,164.60283172381142C-187.2515784466375,222.41570319029947,-206.12578922331878,306.0635674466484,-215.56289461165943,347.88749957482287L-225.00000000000006,389.71143170299734"></path><path class="link" d="M450,-2.7554552980815446e-14L418.05560725051487,-13.082545656865777C386.1112145010298,-26.165091313731526,322.2224290020596,-52.330182627463024,321.81157115468005,-44.490547882389016C321.4007133073006,-36.65091313731502,384.46778311151184,5.193447666564491,416.00131801361744,26.115628068504247L447.53485291572304,47.037808470444"></path><path class="link" d="M450,-2.7554552980815446e-14L416.17470785155825,-10.270232838867463C382.3494157031166,-20.5404656777349,314.6988314062332,-41.08093135546977,254.5843181464751,-33.49639703320464C194.46980488671707,-25.911862710939502,141.89136266408434,9.79767161132564,87.97641892669078,42.88417402009765C34.06147518929725,75.97067642886967,-21.189970062857117,106.43414692414855,8.008437118836435,159.52588718000447C37.20684430052999,212.6176274358604,150.85510391607147,288.33763745229334,207.6792337238422,326.1976424605098L264.50336353161293,364.0576474687263"></path><path class="link" d="M450,-2.7554552980815446e-14L415.7632144814374,-10.003005919760472C381.52642896287466,-20.00601183952092,313.0528579257493,-40.01202367904181,252.11535792574932,-31.893035518562694C191.17785792574932,-23.77404735808358,137.77642896287466,12.469940802395547,83.03849848523917,46.090897049381546C28.300568007603697,79.71185329636755,-27.77386398479261,110.70977762986041,-4.336363984792612,167.5426947532142C19.101136015207384,224.37561187656797,122.05056800760367,307.0435217897827,173.52528400380183,348.3774767463901L224.99999999999997,389.7114317029974"></path><path class="link" d="M450,-2.7554552980815446e-14L408.8343976029976,-13.08791394929178C367.6687952059952,-26.17582789858353,285.3375904119905,-52.351655797167034,210.54245665511107,-50.402483695750526C135.74732289823163,-48.453311594334025,68.48826017847753,-18.37913949291752,-0.10730405603738309,9.07200069500586C-68.7028682905523,36.52314088292924,-138.63493403982804,61.3512491573595,-212.20087033798404,74.99545386727499C-285.76680663614,88.63965857719047,-362.9666134831762,91.09995972259118,-401.5665169066944,92.33011029529155L-440.16642033021253,93.5602608679919"></path><path class="link" d="M450,-2.7554552980815446e-14L408.9613870613038,-12.613982838867463C367.92277412260756,-25.227965677734897,285.8455482452152,-50.455931355469765,211.30439340494812,-47.55889703320462C136.76323856468107,-44.66186271093949,69.75815476153934,-13.639828388674346,1.4165694436367933,14.759174020097669C-66.92501587426575,43.15817642886969,-136.60310270692912,68.93414692414858,-208.3911865887986,89.21338718000452C-280.17927047066803,109.49262743586046,-354.07735140174356,124.27513745229344,-391.0263918672813,131.6663924605099L-427.9754323328191,139.0576474687264"></path><path class="link" d="M447.53485291572304,47.037808470444L415.1908066790168,29.92878409733987C382.8467604423106,12.819759724235743,318.1586679688981,-21.398289021972516,312.08543513947274,1.2673244636384926C306.01220231004726,23.932937949249503,358.55382912460885,103.48221366667978,384.82464253188965,143.25685152539492L411.09545593917045,183.03148938411005"></path><path class="link" d="M447.53485291572304,47.037808470444L413.194717412574,30.88784957277106C378.854581909425,14.737890675098123,310.174310903127,-17.562027120247752,248.72196754841966,-15.857218856788117C187.26962419371236,-14.152410593328483,133.04520849059574,21.55712372893666,77.48429127271832,54.64362613770868C21.923374054840895,87.73012854648069,-34.974044677797345,118.19359904175958,-17.605595245025526,177.16506535642102C-0.2371458122537149,236.13653167108245,91.39717178592815,323.61599380512644,137.2143305850191,367.3557248721484L183.03148938411002,411.09545593917045"></path><path class="link" d="M447.53485291572304,47.037808470444L412.7366565592888,31.0636826602049C377.9384602028545,15.089556849965803,308.342067489986,-16.858694770512393,245.97360242870818,-14.802220332185081C183.6051373674304,-12.745745893857766,128.46459995774327,23.315454603275057,71.98756103329536,56.75362318691475C15.510522108847445,90.19179177055446,-42.30301833036129,121.00692844070103,-31.34742084358292,182.44005797943623C-20.391823356804554,243.87318751817142,59.33291205596091,335.92430992549527,99.19527976234365,381.94987112915715L139.05764746872637,427.9754323328191"></path><path class="link" d="M447.53485291572304,47.037808470444L406.60063939815626,26.60560524007137C365.66642588058943,6.173402009698743,283.79799884545577,-34.69100445104652,209.1574994619128,-41.55068485298626C134.51700007836985,-48.410365254926006,67.1044283464176,-21.26531959806025,-1.644644900295437,3.256694145312385C-70.39371814700849,27.77870788868502,-140.47929290848234,49.67768971856453,-215.42793567755993,48.697735375430284C-290.3765784466375,47.71778103229605,-370.1882892233187,23.85889051614807,-410.0941446116594,11.929445258074075L-450,8.331402627963776e-14"></path><path class="link" d="M447.53485291572304,47.037808470444L406.62631801361744,27.095582411638492C365.71778311151184,7.153356352832996,283.9007133073006,-32.73109576477801,209.31157115468008,-38.6108218235835C134.72242900205958,-44.49054788238899,67.36121450102979,-16.36554788238897,-1.3365015147608166,9.136420204117924C-70.03421753055143,34.63838829062482,-140.06843506110286,57.51732446363858,-214.65757721372336,63.39705052244414C-289.2467193663438,69.27677658124969,-368.39078614103346,58.15729252584705,-407.96281952837825,52.59755049814573L-447.53485291572304,47.0378084704444"></path><path class="link" d="M440.16642033021253,93.5602608679916L408.89693717889327,62.04040012924052C377.627454027574,30.52053939048945,315.0884877249354,-32.5191820870127,310.2433269930951,-78.61780712902966C305.39816626125474,-124.71643217104662,358.2468111002126,-153.8739607775784,384.67113351969147,-168.45272508084426L411.0954559391704,-183.03148938411016"></path><path class="link" d="M440.16642033021253,93.5602608679916L409.2486033537609,68.75059048034129C378.3307863773093,43.940920092690966,316.49515242440617,-5.6784206826096595,314.4633210915072,1.9044770841794592C312.4314897586084,9.487374850968578,370.20346104571377,74.27251115984744,399.0894466892664,106.66507931428687L427.97543233281914,139.05764746872632"></path><path class="link" d="M440.16642033021253,93.5602608679916L400.2556940073948,66.33816503721727C360.3449676845771,39.116069206442944,280.52351503894164,-15.328122455105714,207.00893597170807,-29.952281508155412C133.49435690447453,-44.57644056120511,66.28665141564285,-19.380567005755843,-2.25755558794962,3.192274636200293C-70.8017625915421,25.765116278156427,-140.68247110989537,45.714926006619436,-215.11810425031774,36.906073503263165C-289.5537373907401,28.097220999906884,-368.54429515323153,-9.470293735268674,-408.03957403447725,-28.254051102856454L-447.534852915723,-47.03780847044423"></path><path class="link" d="M440.16642033021253,93.5602608679916L400.33244851349383,65.85355615807616C360.49847669677524,38.1468514481607,280.8305330633379,-17.266557971670196,207.46946300830245,-32.85993478300214C134.10839295326704,-48.453311594334075,67.05419647663352,-24.22665579716704,-1.3365015147608166,-2.6230319134931457C-69.72719950615516,18.98059197018075,-139.45439901231032,37.96118394036152,-212.81546906734573,22.36780712902957C-286.17653912238114,6.774430317697612,-363.17147972629687,-43.39291527514706,-401.66895002825476,-68.47658807156941L-440.16642033021253,-93.56026086799174"></path><path class="link" d="M440.16642033021253,93.5602608679916L403.94292934122535,62.24307533034469C367.7194383522381,30.925889792697774,295.27245637426375,-31.708481282596054,229.13234797469124,-54.522819749390926C162.99223957511876,-77.3371582161858,103.15900475394817,-60.33146407448171,41.989268418016756,-45.94880184627075C-19.180467917914655,-31.566139618059783,-81.68670576860688,-19.80650930334195,-104.5010442354018,-85.94661770291442C-127.31538270219671,-152.08672610248692,-110.43782178509434,-296.12657321634975,-101.99904132654314,-368.1464967732811L-93.56026086799194,-440.16642033021253"></path><path class="link" d="M440.16642033021253,93.5602608679916L403.468998230801,62.370064788650865C366.7715761313895,31.17986870931014,293.3767319325665,-31.200523449371328,226.28876131214534,-53.760882999553836C159.20079069172422,-76.32124254973634,98.419693649705,-59.06156949141988,36.30209509292495,-44.424928346596566C-25.815503463855094,-29.788287201773233,-89.26960353539596,-17.774677970443033,-118.7189775481313,-82.13693395372897C-148.16835156086668,-146.4991899370149,-143.61299951479657,-287.237311134917,-141.3353234917615,-357.6063717338681L-139.05764746872643,-427.9754323328191"></path><path class="link" d="M427.97543233281914,139.05764746872632L398.4838015977864,108.52906324170603C368.99217086275365,78.00047901468572,310.00890939268817,16.943310560645116,307.1955799937468,24.272284213209073C304.38225059480527,31.601257865773025,357.73885326698786,107.31637362494153,384.41715460307915,145.1739315045258L411.09545593917045,183.03148938411005"></path><path class="link" d="M427.97543233281914,139.05764746872632L393.88741318095344,101.5026029894642C359.79939402908775,63.947558510202036,291.62335572535625,-11.162530448322249,228.23031750035258,-40.765413473255734C164.83727927534883,-70.36829649818922,106.22724112907285,-54.463973589531896,46.28070146803602,-41.18268259436771C-13.66583819300079,-27.90139159920352,-74.94887936879842,-17.24313251753246,-90.72471461100531,-85.40566622334052C-106.50054985321218,-153.5681999291486,-76.7691791618283,-300.55152642243576,-61.90349381613637,-374.04318966907937L-47.03780847044443,-447.534852915723"></path><path class="link" d="M427.97543233281914,139.05764746872632L389.7155689679817,105.67444720243584C351.4557056031444,72.29124693614534,274.93597887346965,5.524846403564368,203.19925222252263,-15.73434819542581C131.4625255715756,-36.99354279441599,64.50879899935632,-12.745531459815362,-3.7814290876238013,8.879447961292131C-72.07165717460391,30.504427382399626,-141.69838677634485,49.506374890013994,-215.88004100015485,39.749660165809075C-290.0616952239648,29.99294544160416,-368.79827406984396,-8.52243151442004,-408.1665634927835,-27.780119992432137L-447.534852915723,-47.03780847044424"></path><path class="link" d="M427.97543233281914,139.05764746872632L390.585123191388,108.91966774412394C353.19481404995685,78.78168801952152,278.4141957670945,18.505728570316748,208.4165775629599,3.736975054702763C138.41895935882533,-11.031778460911221,73.20434123341848,19.706673957065593,6.6532215932507865,47.822094461549284C-59.8978980469169,75.93751496603296,-127.78551920184539,101.42990355702352,-189.79341429796838,137.10627641645195C-251.80130939409136,172.78264927588035,-307.9294784314088,218.64300640374665,-335.9935629500676,241.5731849676798L-364.0576474687263,264.50336353161293"></path><path class="link" d="M427.97543233281914,139.05764746872632L389.79232347408083,105.18983832329472C351.6092146153425,71.3220291778631,275.2429968978659,3.586410886999886,203.65977925911704,-18.64200147027253C132.07656162036815,-40.870413827544944,65.276344060347,-17.591620251226562,-2.860375014434988,3.0641414115986927C-70.99709408921697,23.71990307442395,-140.47031467875976,41.75263282375608,-213.57740581718284,25.211393791575478C-286.6844969556059,8.67015475939489,-363.42545864290923,-42.44505305429843,-401.7959394865609,-68.00265696114509L-440.16642033021253,-93.56026086799174"></path><path class="link" d="M411.09545593917045,183.03148938411005L384.6711335196915,144.22606928367716C358.2468111002126,105.42064918324427,305.39816626125474,27.809808982378467,310.2433269930951,12.897937563025392C315.0884877249354,-2.0139338563276823,377.627454027574,45.77316350583195,408.89693717889327,69.66671218691178L440.16642033021253,93.5602608679916"></path><path class="link" d="M411.09545593917045,183.03148938411005L382.5384874656327,147.97574235781104C353.98151899209506,112.91999533151204,296.8675820450197,42.808501278914015,242.42664812746594,23.70094339932977C187.98571420991217,4.59338551974552,136.21778332188003,36.48976381317504,83.11335091908711,65.76311019311142C30.00891851629417,95.03645657304781,-24.432015401259587,121.68677103949108,5.5769031150345825,170.96535526651135C35.58582163132875,220.24393949353166,150.04459258147085,292.150793481129,207.2739780565419,328.1042204749277L264.50336353161293,364.0576474687263"></path><path class="link" d="M411.09545593917045,183.03148938411005L382.12699409551175,148.24296927691805C353.1585322518531,113.454449169726,295.22160856453576,43.87740895534197,239.95768790674012,25.30430491397171C184.6937672489444,6.7312008726014385,132.10284962067036,39.16203300424493,78.17543047763549,68.96983322239531C24.24801133460061,98.77763344054567,-31.01590932319508,125.96240174520291,-6.76789798859447,178.9821628397211C17.480113346006146,232.00192393423924,121.24005667300305,310.8566778186183,173.12002833650152,350.2840547608078L224.99999999999997,389.7114317029974"></path><path class="link" d="M-93.56026086799194,-440.16642033021253L-114.17401081967398,-360.722859916714C-134.78776077135603,-281.27929950321555,-176.01526067472014,-122.39217867621853,-228.9377931865832,-18.52586039049811C-281.8603256984463,85.34045789522231,-346.47789081880836,134.18597363966617,-378.7866733789894,158.60873151188812L-411.09545593917045,183.03148938411005"></path></g><g><text class="node module-1" dy="0.31em" transform="rotate(-84)translate(460,0)" style="text-anchor: start;">gpslFile</text><text class="node module-1" dy="0.31em" transform="rotate(-78)translate(460,0)" style="text-anchor: start;">function</text><text class="node module-1" dy="0.31em" transform="rotate(-72)translate(460,0)" style="text-anchor: start;">program</text><text class="node module-1" dy="0.31em" transform="rotate(-66)translate(460,0)" style="text-anchor: start;">stmt</text><text class="node module-1" dy="0.31em" transform="rotate(-60)translate(460,0)" style="text-anchor: start;">let</text><text class="node module-1" dy="0.31em" transform="rotate(-54)translate(460,0)" style="text-anchor: start;">block</text><text class="node module-1" dy="0.31em" transform="rotate(-48)translate(460,0)" style="text-anchor: start;">return</text><text class="node module-1" dy="0.31em" transform="rotate(-42)translate(460,0)" style="text-anchor: start;">if</text><text class="node module-1" dy="0.31em" transform="rotate(-36)translate(460,0)" style="text-anchor: start;">while</text><text class="node module-1" dy="0.31em" transform="rotate(-30)translate(460,0)" style="text-anchor: start;">for</text><text class="node module-1" dy="0.31em" transform="rotate(-24)translate(460,0)" style="text-anchor: start;">expr</text><text class="node module-1" dy="0.31em" transform="rotate(-18)translate(460,0)" style="text-anchor: start;">assign</text><text class="node module-1" dy="0.31em" transform="rotate(-12)translate(460,0)" style="text-anchor: start;">equality</text><text class="node module-1" dy="0.31em" transform="rotate(-6)translate(460,0)" style="text-anchor: start;">relational</text><text class="node module-1" dy="0.31em" transform="rotate(0)translate(460,0)" style="text-anchor: start;">add</text><text class="node module-1" dy="0.31em" transform="rotate(6)translate(460,0)" style="text-anchor: start;">mul</text><text class="node module-1" dy="0.31em" transform="rotate(12)translate(460,0)" style="text-anchor: start;">primary</text><text class="node module-1" dy="0.31em" transform="rotate(18)translate(460,0)" style="text-anchor: start;">function_call</text><text class="node module-1" dy="0.31em" transform="rotate(24)translate(460,0)" style="text-anchor: start;">unary</text><text class="node module-2" dy="0.31em" transform="rotate(35.999999999999986)translate(460,0)" style="text-anchor: start;">EOF</text><text class="node module-3" dy="0.31em" transform="rotate(48)translate(460,0)" style="text-anchor: start;">WS</text><text class="node module-3" dy="0.31em" transform="rotate(54)translate(460,0)" style="text-anchor: start;">ADD</text><text class="node module-3" dy="0.31em" transform="rotate(60)translate(460,0)" style="text-anchor: start;">SUB</text><text class="node module-3" dy="0.31em" transform="rotate(66)translate(460,0)" style="text-anchor: start;">MUL</text><text class="node module-3" dy="0.31em" transform="rotate(72)translate(460,0)" style="text-anchor: start;">DIV</text><text class="node module-3" dy="0.31em" transform="rotate(78)translate(460,0)" style="text-anchor: start;">CONJ</text><text class="node module-3" dy="0.31em" transform="rotate(84)translate(460,0)" style="text-anchor: start;">AND</text><text class="node module-3" dy="0.31em" transform="rotate(90)translate(460,0)rotate(180)" style="text-anchor: end;">EQ</text><text class="node module-3" dy="0.31em" transform="rotate(96.00000000000003)translate(460,0)rotate(180)" style="text-anchor: end;">EQEQ</text><text class="node module-3" dy="0.31em" transform="rotate(102)translate(460,0)rotate(180)" style="text-anchor: end;">NE</text><text class="node module-3" dy="0.31em" transform="rotate(108.00000000000003)translate(460,0)rotate(180)" style="text-anchor: end;">BE</text><text class="node module-3" dy="0.31em" transform="rotate(114)translate(460,0)rotate(180)" style="text-anchor: end;">LE</text><text class="node module-3" dy="0.31em" transform="rotate(120)translate(460,0)rotate(180)" style="text-anchor: end;">BT</text><text class="node module-3" dy="0.31em" transform="rotate(126)translate(460,0)rotate(180)" style="text-anchor: end;">LT</text><text class="node module-3" dy="0.31em" transform="rotate(132)translate(460,0)rotate(180)" style="text-anchor: end;">SEMICOLON</text><text class="node module-3" dy="0.31em" transform="rotate(138)translate(460,0)rotate(180)" style="text-anchor: end;">COLON</text><text class="node module-3" dy="0.31em" transform="rotate(144)translate(460,0)rotate(180)" style="text-anchor: end;">COMMA</text><text class="node module-3" dy="0.31em" transform="rotate(150)translate(460,0)rotate(180)" style="text-anchor: end;">DOT</text><text class="node module-3" dy="0.31em" transform="rotate(156)translate(460,0)rotate(180)" style="text-anchor: end;">QUOTE</text><text class="node module-3" dy="0.31em" transform="rotate(161.99999999999997)translate(460,0)rotate(180)" style="text-anchor: end;">ADD_ASSIGNMENT</text><text class="node module-3" dy="0.31em" transform="rotate(168)translate(460,0)rotate(180)" style="text-anchor: end;">SUB_ASSIGNMENT</text><text class="node module-3" dy="0.31em" transform="rotate(174)translate(460,0)rotate(180)" style="text-anchor: end;">MUL_ASSIGNMENT</text><text class="node module-3" dy="0.31em" transform="rotate(180)translate(460,0)rotate(180)" style="text-anchor: end;">DIV_ASSIGNMENT</text><text class="node module-3" dy="0.31em" transform="rotate(186)translate(460,0)rotate(180)" style="text-anchor: end;">LPAREN</text><text class="node module-3" dy="0.31em" transform="rotate(192)translate(460,0)rotate(180)" style="text-anchor: end;">RPAREN</text><text class="node module-3" dy="0.31em" transform="rotate(198)translate(460,0)rotate(180)" style="text-anchor: end;">LCURL</text><text class="node module-3" dy="0.31em" transform="rotate(204)translate(460,0)rotate(180)" style="text-anchor: end;">RCURL</text><text class="node module-3" dy="0.31em" transform="rotate(210)translate(460,0)rotate(180)" style="text-anchor: end;">FN</text><text class="node module-3" dy="0.31em" transform="rotate(216)translate(460,0)rotate(180)" style="text-anchor: end;">FOR</text><text class="node module-3" dy="0.31em" transform="rotate(222)translate(460,0)rotate(180)" style="text-anchor: end;">WHILE</text><text class="node module-3" dy="0.31em" transform="rotate(228)translate(460,0)rotate(180)" style="text-anchor: end;">IF</text><text class="node module-3" dy="0.31em" transform="rotate(234)translate(460,0)rotate(180)" style="text-anchor: end;">ELSE</text><text class="node module-3" dy="0.31em" transform="rotate(240)translate(460,0)rotate(180)" style="text-anchor: end;">LET</text><text class="node module-3" dy="0.31em" transform="rotate(246)translate(460,0)rotate(180)" style="text-anchor: end;">RETURN</text><text class="node module-3" dy="0.31em" transform="rotate(252)translate(460,0)rotate(180)" style="text-anchor: end;">NUM</text><text class="node module-3" dy="0.31em" transform="rotate(258)translate(460,0)rotate(180)" style="text-anchor: end;">TEXT</text><text class="node module-3" dy="0.31em" transform="rotate(264)translate(460,0)rotate(180)" style="text-anchor: end;">IDENT</text></g></g></svg>